<svg xmlns="http://www.w3.org/2000/svg" xmlns:xlink="http://www.w3.org/1999/xlink" width="375" zoomAndPan="magnify" viewBox="0 146 375 75" height="75" preserveAspectRatio="xMidYMid meet" version="1.0"><defs><g/><clipPath id="c972410e99"><rect x="0" width="341" y="0" height="77"/></clipPath><clipPath id="09355744d8"><path d="M 0.476562 0.988281 L 36 0.988281 L 36 26.238281 L 0.476562 26.238281 Z M 0.476562 0.988281 " clip-rule="nonzero"/></clipPath><clipPath id="9b04ed5b53"><path d="M 16 0.988281 L 50.972656 0.988281 L 50.972656 26.238281 L 16 26.238281 Z M 16 0.988281 " clip-rule="nonzero"/></clipPath><clipPath id="dfc1f18f80"><path d="M 12.535156 19.898438 L 28.378906 19.898438 L 28.378906 26.21875 L 12.535156 26.21875 Z M 12.535156 19.898438 " clip-rule="nonzero"/></clipPath><clipPath id="6695bb8f20"><path d="M 0.535156 0.898438 L 16.378906 0.898438 L 16.378906 7.21875 L 0.535156 7.21875 Z M 0.535156 0.898438 " clip-rule="nonzero"/></clipPath><clipPath id="112e6b523f"><rect x="0" width="17" y="0" height="8"/></clipPath><clipPath id="423633db05"><path d="M 37.035156 11.242188 L 41.757812 11.242188 L 41.757812 15.964844 L 37.035156 15.964844 Z M 37.035156 11.242188 " clip-rule="nonzero"/></clipPath><clipPath id="1f0a4c6c9b"><path d="M 39.394531 11.242188 C 38.09375 11.242188 37.035156 12.300781 37.035156 13.605469 C 37.035156 14.90625 38.09375 15.964844 39.394531 15.964844 C 40.699219 15.964844 41.757812 14.90625 41.757812 13.605469 C 41.757812 12.300781 40.699219 11.242188 39.394531 11.242188 Z M 39.394531 11.242188 " clip-rule="nonzero"/></clipPath><clipPath id="8899c1b251"><path d="M 0.0351562 0.242188 L 4.757812 0.242188 L 4.757812 4.964844 L 0.0351562 4.964844 Z M 0.0351562 0.242188 " clip-rule="nonzero"/></clipPath><clipPath id="3b7955fedc"><path d="M 2.394531 0.242188 C 1.09375 0.242188 0.0351562 1.300781 0.0351562 2.605469 C 0.0351562 3.90625 1.09375 4.964844 2.394531 4.964844 C 3.699219 4.964844 4.757812 3.90625 4.757812 2.605469 C 4.757812 1.300781 3.699219 0.242188 2.394531 0.242188 Z M 2.394531 0.242188 " clip-rule="nonzero"/></clipPath><clipPath id="46c97eb912"><rect x="0" width="5" y="0" height="5"/></clipPath><clipPath id="0031173298"><path d="M 9.445312 11.242188 L 14.167969 11.242188 L 14.167969 15.964844 L 9.445312 15.964844 Z M 9.445312 11.242188 " clip-rule="nonzero"/></clipPath><clipPath id="38882c0407"><path d="M 11.804688 11.242188 C 10.503906 11.242188 9.445312 12.300781 9.445312 13.605469 C 9.445312 14.90625 10.503906 15.964844 11.804688 15.964844 C 13.109375 15.964844 14.167969 14.90625 14.167969 13.605469 C 14.167969 12.300781 13.109375 11.242188 11.804688 11.242188 Z M 11.804688 11.242188 " clip-rule="nonzero"/></clipPath><clipPath id="1f91f1a98e"><path d="M 0.445312 0.242188 L 5.167969 0.242188 L 5.167969 4.964844 L 0.445312 4.964844 Z M 0.445312 0.242188 " clip-rule="nonzero"/></clipPath><clipPath id="2954c181ff"><path d="M 2.804688 0.242188 C 1.503906 0.242188 0.445312 1.300781 0.445312 2.605469 C 0.445312 3.90625 1.503906 4.964844 2.804688 4.964844 C 4.109375 4.964844 5.167969 3.90625 5.167969 2.605469 C 5.167969 1.300781 4.109375 0.242188 2.804688 0.242188 Z M 2.804688 0.242188 " clip-rule="nonzero"/></clipPath><clipPath id="e00a38df5c"><rect x="0" width="6" y="0" height="5"/></clipPath><clipPath id="52dc4079f5"><rect x="0" width="52" y="0" height="27"/></clipPath></defs><g transform="matrix(1, 0, 0, 1, 18, 149)"><g clip-path="url(#c972410e99)"><g fill="#ffffff" fill-opacity="1"><g transform="translate(1.046925, 55.356078)"><g><path d="M 33.015625 -26.328125 C 33.015625 -24.078125 32.5 -22.019531 31.46875 -20.15625 C 30.4375 -18.300781 28.847656 -16.800781 26.703125 -15.65625 C 24.566406 -14.507812 21.914062 -13.9375 18.75 -13.9375 L 12.890625 -13.9375 L 12.890625 0 L 3.421875 0 L 3.421875 -38.828125 L 18.75 -38.828125 C 21.84375 -38.828125 24.457031 -38.289062 26.59375 -37.21875 C 28.738281 -36.15625 30.34375 -34.679688 31.40625 -32.796875 C 32.476562 -30.921875 33.015625 -28.765625 33.015625 -26.328125 Z M 18.03125 -21.46875 C 19.832031 -21.46875 21.175781 -21.890625 22.0625 -22.734375 C 22.945312 -23.578125 23.390625 -24.773438 23.390625 -26.328125 C 23.390625 -27.878906 22.945312 -29.078125 22.0625 -29.921875 C 21.175781 -30.773438 19.832031 -31.203125 18.03125 -31.203125 L 12.890625 -31.203125 L 12.890625 -21.46875 Z M 18.03125 -21.46875 "/></g></g></g><g fill="#ffffff" fill-opacity="1"><g transform="translate(35.55996, 55.356078)"><g><path d="M 1.546875 -15.484375 C 1.546875 -18.660156 2.144531 -21.445312 3.34375 -23.84375 C 4.539062 -26.238281 6.171875 -28.082031 8.234375 -29.375 C 10.304688 -30.664062 12.613281 -31.3125 15.15625 -31.3125 C 17.332031 -31.3125 19.238281 -30.867188 20.875 -29.984375 C 22.519531 -29.097656 23.785156 -27.9375 24.671875 -26.5 L 24.671875 -30.859375 L 34.125 -30.859375 L 34.125 0 L 24.671875 0 L 24.671875 -4.375 C 23.742188 -2.9375 22.457031 -1.773438 20.8125 -0.890625 C 19.175781 -0.00390625 17.269531 0.4375 15.09375 0.4375 C 12.59375 0.4375 10.304688 -0.210938 8.234375 -1.515625 C 6.171875 -2.828125 4.539062 -4.691406 3.34375 -7.109375 C 2.144531 -9.523438 1.546875 -12.316406 1.546875 -15.484375 Z M 24.671875 -15.4375 C 24.671875 -17.789062 24.015625 -19.648438 22.703125 -21.015625 C 21.390625 -22.378906 19.796875 -23.0625 17.921875 -23.0625 C 16.035156 -23.0625 14.4375 -22.390625 13.125 -21.046875 C 11.820312 -19.703125 11.171875 -17.847656 11.171875 -15.484375 C 11.171875 -13.128906 11.820312 -11.257812 13.125 -9.875 C 14.4375 -8.488281 16.035156 -7.796875 17.921875 -7.796875 C 19.796875 -7.796875 21.390625 -8.476562 22.703125 -9.84375 C 24.015625 -11.207031 24.671875 -13.070312 24.671875 -15.4375 Z M 24.671875 -15.4375 "/></g></g></g><g fill="#ffffff" fill-opacity="1"><g transform="translate(73.115003, 55.356078)"><g><path d="M 34.953125 -30.859375 L 15.59375 14.65625 L 5.421875 14.65625 L 12.5 -1.046875 L -0.0625 -30.859375 L 10.515625 -30.859375 L 17.640625 -11.5625 L 24.71875 -30.859375 Z M 34.953125 -30.859375 "/></g></g></g><g fill="#ffffff" fill-opacity="1"><g transform="translate(108.070508, 55.356078)"><g><path d="M 18.921875 -23.015625 L 13.828125 -23.015625 L 13.828125 0 L 4.375 0 L 4.375 -23.015625 L 0.9375 -23.015625 L 0.9375 -30.859375 L 4.375 -30.859375 L 4.375 -31.75 C 4.375 -35.550781 5.457031 -38.4375 7.625 -40.40625 C 9.800781 -42.375 12.992188 -43.359375 17.203125 -43.359375 C 17.898438 -43.359375 18.414062 -43.34375 18.75 -43.3125 L 18.75 -35.296875 C 16.945312 -35.398438 15.675781 -35.140625 14.9375 -34.515625 C 14.195312 -33.890625 13.828125 -32.765625 13.828125 -31.140625 L 13.828125 -30.859375 L 18.921875 -30.859375 Z M 18.921875 -23.015625 "/></g></g></g><g fill="#ffffff" fill-opacity="1"><g transform="translate(127.981883, 55.356078)"><g><path d="M 17.484375 0.4375 C 14.453125 0.4375 11.726562 -0.203125 9.3125 -1.484375 C 6.90625 -2.773438 5.007812 -4.617188 3.625 -7.015625 C 2.238281 -9.421875 1.546875 -12.226562 1.546875 -15.4375 C 1.546875 -18.601562 2.242188 -21.394531 3.640625 -23.8125 C 5.046875 -26.226562 6.960938 -28.082031 9.390625 -29.375 C 11.828125 -30.664062 14.5625 -31.3125 17.59375 -31.3125 C 20.613281 -31.3125 23.335938 -30.664062 25.765625 -29.375 C 28.203125 -28.082031 30.117188 -26.226562 31.515625 -23.8125 C 32.921875 -21.394531 33.625 -18.601562 33.625 -15.4375 C 33.625 -12.257812 32.914062 -9.460938 31.5 -7.046875 C 30.082031 -4.628906 28.144531 -2.773438 25.6875 -1.484375 C 23.238281 -0.203125 20.503906 0.4375 17.484375 0.4375 Z M 17.484375 -7.75 C 19.285156 -7.75 20.820312 -8.410156 22.09375 -9.734375 C 23.363281 -11.054688 24 -12.957031 24 -15.4375 C 24 -17.90625 23.378906 -19.800781 22.140625 -21.125 C 20.910156 -22.457031 19.394531 -23.125 17.59375 -23.125 C 15.75 -23.125 14.21875 -22.46875 13 -21.15625 C 11.78125 -19.84375 11.171875 -17.9375 11.171875 -15.4375 C 11.171875 -12.957031 11.769531 -11.054688 12.96875 -9.734375 C 14.164062 -8.410156 15.671875 -7.75 17.484375 -7.75 Z M 17.484375 -7.75 "/></g></g></g><g fill="#ffffff" fill-opacity="1"><g transform="translate(163.213941, 55.356078)"><g><path d="M 12.890625 -25.71875 C 13.992188 -27.414062 15.375 -28.753906 17.03125 -29.734375 C 18.695312 -30.710938 20.539062 -31.203125 22.5625 -31.203125 L 22.5625 -21.1875 L 19.96875 -21.1875 C 17.601562 -21.1875 15.832031 -20.675781 14.65625 -19.65625 C 13.476562 -18.644531 12.890625 -16.867188 12.890625 -14.328125 L 12.890625 0 L 3.421875 0 L 3.421875 -30.859375 L 12.890625 -30.859375 Z M 12.890625 -25.71875 "/></g></g></g><g fill="#ffffff" fill-opacity="1"><g transform="translate(186.909853, 55.356078)"><g/></g></g><g fill="#ffffff" fill-opacity="1"><g transform="translate(198.635419, 55.356078)"><g/></g></g><g fill="#ffffff" fill-opacity="1"><g transform="translate(210.360986, 55.356078)"><g/></g></g><g fill="#ffffff" fill-opacity="1"><g transform="translate(222.086552, 55.356078)"><g/></g></g><g fill="#ffffff" fill-opacity="1"><g transform="translate(233.831429, 55.356078)"><g><path d="M 12.890625 -40.9375 L 12.890625 0 L 3.421875 0 L 3.421875 -40.9375 Z M 12.890625 -40.9375 "/></g></g></g><g fill="#ffffff" fill-opacity="1"><g transform="translate(250.147688, 55.356078)"><g><path d="M 8.1875 -34.078125 C 6.53125 -34.078125 5.175781 -34.5625 4.125 -35.53125 C 3.070312 -36.507812 2.546875 -37.71875 2.546875 -39.15625 C 2.546875 -40.632812 3.070312 -41.863281 4.125 -42.84375 C 5.175781 -43.820312 6.53125 -44.3125 8.1875 -44.3125 C 9.8125 -44.3125 11.144531 -43.820312 12.1875 -42.84375 C 13.238281 -41.863281 13.765625 -40.632812 13.765625 -39.15625 C 13.765625 -37.71875 13.238281 -36.507812 12.1875 -35.53125 C 11.144531 -34.5625 9.8125 -34.078125 8.1875 -34.078125 Z M 12.890625 -30.859375 L 12.890625 0 L 3.421875 0 L 3.421875 -30.859375 Z M 12.890625 -30.859375 "/></g></g></g><g fill="#ffffff" fill-opacity="1"><g transform="translate(266.463947, 55.356078)"><g><path d="M 22.234375 -31.203125 C 25.847656 -31.203125 28.734375 -30.03125 30.890625 -27.6875 C 33.046875 -25.34375 34.125 -22.125 34.125 -18.03125 L 34.125 0 L 24.71875 0 L 24.71875 -16.765625 C 24.71875 -18.828125 24.179688 -20.425781 23.109375 -21.5625 C 22.046875 -22.707031 20.613281 -23.28125 18.8125 -23.28125 C 17 -23.28125 15.554688 -22.707031 14.484375 -21.5625 C 13.421875 -20.425781 12.890625 -18.828125 12.890625 -16.765625 L 12.890625 0 L 3.421875 0 L 3.421875 -30.859375 L 12.890625 -30.859375 L 12.890625 -26.765625 C 13.847656 -28.128906 15.132812 -29.207031 16.75 -30 C 18.375 -30.800781 20.203125 -31.203125 22.234375 -31.203125 Z M 22.234375 -31.203125 "/></g></g></g><g fill="#ffffff" fill-opacity="1"><g transform="translate(303.742437, 55.356078)"><g><path d="M 22.296875 0 L 12.890625 -12.9375 L 12.890625 0 L 3.421875 0 L 3.421875 -40.9375 L 12.890625 -40.9375 L 12.890625 -18.3125 L 22.234375 -30.859375 L 33.90625 -30.859375 L 21.078125 -15.375 L 34.015625 0 Z M 22.296875 0 "/></g></g></g></g></g><g transform="matrix(1, 0, 0, 1, 203, 180)"><g clip-path="url(#52dc4079f5)"><g clip-path="url(#09355744d8)"><path fill="#ffffff" d="M 22.554688 7.296875 L 13.09375 7.296875 C 9.609375 7.296875 6.785156 10.121094 6.785156 13.605469 C 6.785156 17.085938 9.609375 19.910156 13.09375 19.910156 L 13.09375 26.21875 C 6.125 26.21875 0.476562 20.570312 0.476562 13.605469 C 0.476562 6.636719 6.125 0.988281 13.09375 0.988281 L 22.554688 0.988281 C 29.519531 0.988281 35.167969 6.636719 35.167969 13.605469 L 35.167969 16.757812 L 28.859375 16.757812 L 28.859375 13.605469 C 28.859375 10.121094 26.035156 7.296875 22.554688 7.296875 Z M 22.554688 7.296875 " fill-opacity="1" fill-rule="evenodd"/></g><g clip-path="url(#9b04ed5b53)"><path fill="#ffffff" d="M 28.859375 19.910156 L 38.320312 19.910156 C 41.804688 19.910156 44.628906 17.085938 44.628906 13.605469 C 44.628906 10.121094 41.804688 7.296875 38.320312 7.296875 L 38.320312 0.988281 C 45.289062 0.988281 50.9375 6.636719 50.9375 13.605469 C 50.9375 20.570312 45.289062 26.21875 38.320312 26.21875 L 28.859375 26.21875 C 21.894531 26.21875 16.246094 20.570312 16.246094 13.605469 L 16.246094 10.449219 L 22.554688 10.449219 L 22.554688 13.605469 C 22.554688 17.085938 25.378906 19.910156 28.859375 19.910156 Z M 28.859375 19.910156 " fill-opacity="1" fill-rule="evenodd"/></g><g clip-path="url(#dfc1f18f80)"><g transform="matrix(1, 0, 0, 1, 12, 19)"><g clip-path="url(#112e6b523f)"><g clip-path="url(#6695bb8f20)"><path fill="#ffffff" d="M 0.535156 7.21875 L 0.535156 0.898438 L 16.382812 0.898438 L 16.382812 7.21875 Z M 0.535156 7.21875 " fill-opacity="1" fill-rule="nonzero"/></g></g></g></g><g clip-path="url(#423633db05)"><g clip-path="url(#1f0a4c6c9b)"><g transform="matrix(1, 0, 0, 1, 37, 11)"><g clip-path="url(#46c97eb912)"><g clip-path="url(#8899c1b251)"><g clip-path="url(#3b7955fedc)"><path fill="#00bf63" d="M 0.0351562 0.242188 L 4.757812 0.242188 L 4.757812 4.964844 L 0.0351562 4.964844 Z M 0.0351562 0.242188 " fill-opacity="1" fill-rule="nonzero"/></g></g></g></g></g></g><g clip-path="url(#0031173298)"><g clip-path="url(#38882c0407)"><g transform="matrix(1, 0, 0, 1, 9, 11)"><g clip-path="url(#e00a38df5c)"><g clip-path="url(#1f91f1a98e)"><g clip-path="url(#2954c181ff)"><path fill="#00bf63" d="M 0.445312 0.242188 L 5.167969 0.242188 L 5.167969 4.964844 L 0.445312 4.964844 Z M 0.445312 0.242188 " fill-opacity="1" fill-rule="nonzero"/></g></g></g></g></g></g></g></g></svg>