<svg xmlns="http://www.w3.org/2000/svg" xmlns:xlink="http://www.w3.org/1999/xlink" width="500" zoomAndPan="magnify" viewBox="0 0 375 374.999991" height="500" preserveAspectRatio="xMidYMid meet" version="1.0"><defs><clipPath id="0e9699efb6"><path d="M 8.371094 97.9375 L 255 97.9375 L 255 277.1875 L 8.371094 277.1875 Z M 8.371094 97.9375 " clip-rule="nonzero"/></clipPath><clipPath id="09b68b7376"><path d="M 120 97.9375 L 366.871094 97.9375 L 366.871094 277.1875 L 120 277.1875 Z M 120 97.9375 " clip-rule="nonzero"/></clipPath><clipPath id="6d7c8e4e92"><path d="M 93.980469 232.1875 L 206.480469 232.1875 L 206.480469 277.058594 L 93.980469 277.058594 Z M 93.980469 232.1875 " clip-rule="nonzero"/></clipPath><clipPath id="ea0efdc520"><path d="M 0.980469 0.1875 L 113.480469 0.1875 L 113.480469 45.058594 L 0.980469 45.058594 Z M 0.980469 0.1875 " clip-rule="nonzero"/></clipPath><clipPath id="b7b9e73b45"><rect x="0" width="114" y="0" height="46"/></clipPath><clipPath id="d7be1eaa87"><path d="M 267.933594 170.742188 L 301.449219 170.742188 L 301.449219 204.257812 L 267.933594 204.257812 Z M 267.933594 170.742188 " clip-rule="nonzero"/></clipPath><clipPath id="beb9a04300"><path d="M 284.691406 170.742188 C 275.433594 170.742188 267.933594 178.246094 267.933594 187.5 C 267.933594 196.753906 275.433594 204.257812 284.691406 204.257812 C 293.945312 204.257812 301.449219 196.753906 301.449219 187.5 C 301.449219 178.246094 293.945312 170.742188 284.691406 170.742188 Z M 284.691406 170.742188 " clip-rule="nonzero"/></clipPath><clipPath id="d3db783dd2"><path d="M 0.933594 0.742188 L 34.449219 0.742188 L 34.449219 34.257812 L 0.933594 34.257812 Z M 0.933594 0.742188 " clip-rule="nonzero"/></clipPath><clipPath id="60837d7079"><path d="M 17.691406 0.742188 C 8.433594 0.742188 0.933594 8.246094 0.933594 17.5 C 0.933594 26.753906 8.433594 34.257812 17.691406 34.257812 C 26.945312 34.257812 34.449219 26.753906 34.449219 17.5 C 34.449219 8.246094 26.945312 0.742188 17.691406 0.742188 Z M 17.691406 0.742188 " clip-rule="nonzero"/></clipPath><clipPath id="2092e943d2"><rect x="0" width="35" y="0" height="35"/></clipPath><clipPath id="242eca34d0"><path d="M 72.046875 170.742188 L 105.5625 170.742188 L 105.5625 204.257812 L 72.046875 204.257812 Z M 72.046875 170.742188 " clip-rule="nonzero"/></clipPath><clipPath id="ae7a4c97e4"><path d="M 88.804688 170.742188 C 79.550781 170.742188 72.046875 178.246094 72.046875 187.5 C 72.046875 196.753906 79.550781 204.257812 88.804688 204.257812 C 98.058594 204.257812 105.5625 196.753906 105.5625 187.5 C 105.5625 178.246094 98.058594 170.742188 88.804688 170.742188 Z M 88.804688 170.742188 " clip-rule="nonzero"/></clipPath><clipPath id="0048469b13"><path d="M 0.046875 0.742188 L 33.5625 0.742188 L 33.5625 34.257812 L 0.046875 34.257812 Z M 0.046875 0.742188 " clip-rule="nonzero"/></clipPath><clipPath id="433d246499"><path d="M 16.804688 0.742188 C 7.550781 0.742188 0.046875 8.246094 0.046875 17.5 C 0.046875 26.753906 7.550781 34.257812 16.804688 34.257812 C 26.058594 34.257812 33.5625 26.753906 33.5625 17.5 C 33.5625 8.246094 26.058594 0.742188 16.804688 0.742188 Z M 16.804688 0.742188 " clip-rule="nonzero"/></clipPath><clipPath id="b06020585b"><rect x="0" width="34" y="0" height="35"/></clipPath></defs><g clip-path="url(#0e9699efb6)"><path fill="#ffffff" d="M 165.109375 142.714844 L 97.9375 142.714844 C 73.207031 142.714844 53.160156 162.765625 53.160156 187.496094 C 53.160156 212.226562 73.207031 232.277344 97.9375 232.277344 L 97.9375 277.058594 C 48.476562 277.058594 8.378906 236.960938 8.378906 187.496094 C 8.378906 138.035156 48.476562 97.9375 97.9375 97.9375 L 165.109375 97.9375 C 214.574219 97.9375 254.671875 138.035156 254.671875 187.496094 L 254.671875 209.886719 L 209.890625 209.886719 L 209.890625 187.496094 C 209.890625 162.765625 189.839844 142.714844 165.109375 142.714844 Z M 165.109375 142.714844 " fill-opacity="1" fill-rule="evenodd"/></g><g clip-path="url(#09b68b7376)"><path fill="#ffffff" d="M 209.890625 232.277344 L 277.058594 232.277344 C 301.792969 232.277344 321.839844 212.226562 321.839844 187.496094 C 321.839844 162.765625 301.792969 142.714844 277.058594 142.714844 L 277.058594 97.9375 C 326.523438 97.9375 366.621094 138.035156 366.621094 187.496094 C 366.621094 236.960938 326.523438 277.058594 277.058594 277.058594 L 209.890625 277.058594 C 160.425781 277.058594 120.328125 236.960938 120.328125 187.496094 L 120.328125 165.105469 L 165.109375 165.105469 L 165.109375 187.496094 C 165.109375 212.226562 185.160156 232.277344 209.890625 232.277344 Z M 209.890625 232.277344 " fill-opacity="1" fill-rule="evenodd"/></g><g clip-path="url(#6d7c8e4e92)"><g transform="matrix(1, 0, 0, 1, 93, 232)"><g clip-path="url(#b7b9e73b45)"><g clip-path="url(#ea0efdc520)"><path fill="#ffffff" d="M 0.980469 45.058594 L 0.980469 0.1875 L 113.503906 0.1875 L 113.503906 45.058594 Z M 0.980469 45.058594 " fill-opacity="1" fill-rule="nonzero"/></g></g></g></g><g clip-path="url(#d7be1eaa87)"><g clip-path="url(#beb9a04300)"><g transform="matrix(1, 0, 0, 1, 267, 170)"><g clip-path="url(#2092e943d2)"><g clip-path="url(#d3db783dd2)"><g clip-path="url(#60837d7079)"><path fill="#00bf63" d="M 0.933594 0.742188 L 34.449219 0.742188 L 34.449219 34.257812 L 0.933594 34.257812 Z M 0.933594 0.742188 " fill-opacity="1" fill-rule="nonzero"/></g></g></g></g></g></g><g clip-path="url(#242eca34d0)"><g clip-path="url(#ae7a4c97e4)"><g transform="matrix(1, 0, 0, 1, 72, 170)"><g clip-path="url(#b06020585b)"><g clip-path="url(#0048469b13)"><g clip-path="url(#433d246499)"><path fill="#00bf63" d="M 0.046875 0.742188 L 33.5625 0.742188 L 33.5625 34.257812 L 0.046875 34.257812 Z M 0.046875 0.742188 " fill-opacity="1" fill-rule="nonzero"/></g></g></g></g></g></g></svg>